<?xml version="1.0" encoding="utf-8"?><svg version="1.1" id="mail-yahoo-letter-icon" xmlns="http://www.w3.org/2000/svg" xmlns:xlink="http://www.w3.org/1999/xlink" x="0px" y="0px" width="1200px" height="1200px" viewBox="0 0 1200 1200" style="enable-background:new 0 0 1200 1200;" xml:space="preserve"><title>Yahoo!Japan free mail logo - free.arinco.org</title><desc>Please feel free to use this LOGO.You are very welcome always to visit my site.</desc><metadata><script type="application/ld+json">{ "@context": "http://schema.org", "@type": "ImageObject", "encodingFormat": "image/svg+xml", "version": "2.0", "contentSize": "5.36 KB", "embedUrl": "http://free.arinco.org/mail/yahoojp/", "contentUrl": "http://free.arinco.org/images/mail/mail-yahoo-japan-logo.svg", "inLanguage": "en-US", "dateCreated": "2015-10-26T11:30:40+09:00", "datePublished": "2016-03-21T23:00:31+09:00", "description": "The logo has been used in free.arinco.org", "name": "Yahoo! Japan SVG Vector Logo", "keywords": "yahoo ,free ,arinco ,email ,vector ,logo ,svg ,oe", "isFamilyFriendly": "True", "author": { "@type": "Person", "name": "free.", "url": "https://plus.google.com/111421836269129006522/", "sameAs": "https://twitter.com/free_arinco_org" }}</script></metadata><style><![CDATA[.st0,.st1,.st4,.st6,.st7{clip-path:url(#SVGID_4_);} .st0{opacity:0.2;} .st1{opacity:0.4;} .st2{fill:#BF0000;} .st3{fill:#F50636;} .st5{filter:url(#AI_shadow);} .st6{fill:#FFFFFF;} .st7{opacity:0.1;}]]></style><a xlink:href="http://free.arinco.org/mail/yahoojp/"><defs><filter x="-15%" y="-15%" width="140%" height="130%" id="AI_shadow" filterUnits="objectBoundingBox"><feGaussianBlur result="blur" in="SourceAlpha" stdDeviation="10"></feGaussianBlur><feOffset dy="8" result="offsetBlurredAlpha" dx="8" in="blur"></feOffset><feMerge><feMergeNode in="offsetBlurredAlpha"></feMergeNode><feMergeNode in="SourceGraphic"></feMergeNode></feMerge></filter><path id="SVGID_1_" d="M939,720c0,8.8-7.2,16-16,16H277c-8.8,0-16-7.2-16-16V272c0-8.8,7.2-16,16-16h646c8.8,0,16,7.2,16,16V720z"/><clipPath id="SVGID_4_"><use xlink:href="#SVGID_1_" style="overflow:visible;"/></clipPath></defs><g id="yahoo-letter" class="st5"><rect x="261" y="256" class="st6" width="678" height="480"/><polygon class="st0" points="939,220 690.057,496.949 939,720.719 "/><polygon class="st7" points="956,736 939,720.719 690.057,496.949 600.001,416 244,736 762.82,736 939,736 "/><g class="st1"><path d="M946,256c5.5,0,6.818,3.182,2.929,7.071L607.07,604.929c-3.89,3.89-10.253,3.89-14.143,0L251.071,263.071 C247.182,259.182,248.5,256,254,256H946z"/></g><g class="st4"><path class="st2" d="M946,256c5.5,0,6.653,3.008,2.563,6.685l-341.126,306.63c-4.091,3.677-10.784,3.677-14.875,0 l-341.125-306.63C247.347,259.008,248.5,256,254,256H946z"/></g></g><path id="yahoo-japan" class="st3" d="M220,850.563l102.869-0.393v15.761h-28.166l44.119,54.072l36.588-36.596h-26.625v-13.329 h87.306v14.596h-29.414l-60.191,53.322v40.181h32.677v14.283H277.838v-15.229h31.519v-39.983l-62.472-72.423H220V850.563 M436.221,935.402h17.062l-6.327-19.297L436.221,935.402 M507.874,975.256v10.04h-55.082v-10.04h15.317l-11.659-28.358h-25.853 l-7.629,15.649h13.761v14.894h-51.195v-14.894h14.709l32.082-56.602l-8.499-0.225v-10.476h52.909v11.007h-13.111l33.754,69.004 H507.874z M631.604,948.582v-72.688h14.969V861.97h-58.578v13.924h22.043v34.093h-64.131v-22.173h25.027v-13.971h-73.522v13.971 h21.894v60.769h-21.894v13.965h73.522v-13.965h-25.027v-23.87h64.131v23.87h-21.476v13.965h58.369v-13.965H631.604 M713.222,953.225 c22.237,0,40.275-14.444,40.275-32.245c0-17.875-18.038-32.345-40.275-32.345c-22.239,0-40.266,14.47-40.266,32.345 C672.956,938.78,690.982,953.225,713.222,953.225 M775.01,921.229c0,25.735-29.187,46.551-65.251,46.551 c-35.956,0-65.174-20.815-65.174-46.551c0-25.647,29.218-46.495,65.174-46.495C745.823,874.733,775.01,895.581,775.01,921.229z M856.692,944.824c24.476,0,44.292-15.898,44.292-35.504c0-19.642-19.816-35.509-44.292-35.509 c-24.452,0-44.279,15.867-44.279,35.509C812.413,928.926,832.24,944.824,856.692,944.824 M924.614,909.671 c0,28.238-32.116,51.186-71.718,51.186c-39.617,0-71.7-22.947-71.7-51.186c0-28.285,32.083-51.206,71.7-51.206 C892.498,858.465,924.614,881.386,924.614,909.671z M937.691,969.188h20.645v-20.644h-20.645V969.188z M980,843.878l-39.976-5.84 v97.932h19.678L980,843.878 M721.112,986.415H683.95v6.045h11.45c0,8.891,0,37.15,0,43.521c0,7.577-13.351,15.001-10.712,17.661 c2.668,2.647,26.287-11.666,26.287-22.934c0-9.205,0-30.694,0-38.248h10.137V986.415 M745.13,1013.474h9.367l-4.493-7.925 L745.13,1013.474 M785.311,1037.111v4.494h-29.512v-3.389l6.98-6.359l-5.222-10.3l-14.426-0.553l-6.65,8.703l7.139,2.149v5.254 h-23.28v-5.427l8.339-3.388l14.618-25.811l-4.189-7.4h25.937l-5.261,6.709l15.771,31.93L785.311,1037.111z M859.451,1013.474h9.342 l-4.501-7.925L859.451,1013.474 M899.585,1037.111v4.494h-29.502v-3.389l6.981-6.359l-5.209-10.3l-14.427-0.553l-6.682,8.703 l7.186,2.149v5.254H834.65v-5.427l8.368-3.388l14.563-25.811l-4.143-7.4h25.883l-5.287,6.709l15.783,31.93L899.585,1037.111z M808.177,1016.839c0,0,17.15,2.906,17.15-8.285c0-11.273-17.15-7.085-17.15-7.085V1016.839 M824.697,1022.851 c-2.659,0-15.759,0-15.759,0v7.857l4.883,3.407v2.996h-27.003v-2.996l7.479-5.276v-26.655l-7.479-3.364v-3.733c0,0,23.63,0,37.879,0 C847.729,1004.432,827.366,1022.851,824.697,1022.851z M900.51,1033.725h21.02v-4.559l-6.759-2.192v-21.425l27.057,31.563 l6.555-6.568v-25.731h8.434v-6.763h-22.119v3.746l5.915,3.581v12.98l-20.654-25.57h-18.743v2.3l4.145,4.146v28.87h-4.849V1033.725" /></a></svg>